<svg width="22" height="23" viewBox="0 0 22 23" fill="none" xmlns="http://www.w3.org/2000/svg">
<g clip-path="url(#clip0_24_96)">
<path d="M13.6364 2.94939C13.3715 2.48381 12.988 2.0967 12.5249 1.82741C12.0619 1.55812 11.5357 1.41626 11.0001 1.41626C10.4644 1.41626 9.93827 1.55812 9.47521 1.82741C9.01215 2.0967 8.62865 2.48381 8.36373 2.94939L0.379567 17.1742C0.126033 17.6206 -0.00503604 18.1261 -0.000367802 18.6394C0.00430044 19.1528 0.144541 19.6558 0.406151 20.0975C0.671603 20.5532 1.05279 20.9306 1.5111 21.1916C1.9694 21.4525 2.48853 21.5877 3.0159 21.5834H18.9842C19.5116 21.5877 20.0307 21.4525 20.489 21.1916C20.9473 20.9306 21.3285 20.5532 21.594 20.0975C21.8556 19.6558 21.9958 19.1528 22.0005 18.6394C22.0052 18.1261 21.8741 17.6206 21.6206 17.1742L13.6364 2.94939ZM11.0001 17.9167C10.8188 17.9167 10.6415 17.863 10.4908 17.7622C10.34 17.6615 10.2226 17.5183 10.1532 17.3509C10.0838 17.1834 10.0656 16.999 10.101 16.8212C10.1364 16.6434 10.2237 16.4801 10.3519 16.3519C10.4801 16.2237 10.6434 16.1364 10.8212 16.101C10.9991 16.0656 11.1834 16.0838 11.3509 16.1532C11.5184 16.2225 11.6615 16.34 11.7622 16.4908C11.863 16.6415 11.9167 16.8188 11.9167 17.0001C11.9167 17.2432 11.8202 17.4763 11.6482 17.6482C11.4763 17.8201 11.2432 17.9167 11.0001 17.9167ZM11.9167 13.3334C11.9167 13.5765 11.8202 13.8097 11.6482 13.9816C11.4763 14.1535 11.2432 14.2501 11.0001 14.2501C10.757 14.2501 10.5238 14.1535 10.3519 13.9816C10.18 13.8097 10.0834 13.5765 10.0834 13.3334V7.83339C10.0834 7.59028 10.18 7.35712 10.3519 7.18521C10.5238 7.0133 10.757 6.91673 11.0001 6.91673C11.2432 6.91673 11.4763 7.0133 11.6482 7.18521C11.8202 7.35712 11.9167 7.59028 11.9167 7.83339V13.3334Z" fill="url(#paint0_linear_24_96)"/>
</g>
<defs>
<linearGradient id="paint0_linear_24_96" x1="-4.0792e-05" y1="11.5" x2="22" y2="11.5" gradientUnits="userSpaceOnUse">
<stop stop-color="#FD6C63"/>
<stop offset="1" stop-color="#FFBCB8"/>
</linearGradient>
<clipPath id="clip0_24_96">
<rect width="22" height="22" fill="white" transform="translate(0 0.5)"/>
</clipPath>
</defs>
</svg>
