<svg width="22" height="23" viewBox="0 0 22 23" fill="none" xmlns="http://www.w3.org/2000/svg">
<circle cx="11" cy="11.5" r="11" fill="url(#paint0_linear_24_55)"/>
<path d="M10.302 13.284C10.2087 13.284 10.1293 13.256 10.064 13.2C9.99867 13.1347 9.966 13.0507 9.966 12.948V6.536C9.966 6.44267 9.99867 6.36333 10.064 6.298C10.1293 6.23267 10.2087 6.2 10.302 6.2H11.436C11.5387 6.2 11.618 6.23267 11.674 6.298C11.7393 6.36333 11.772 6.44267 11.772 6.536V12.948C11.772 13.0507 11.7393 13.1347 11.674 13.2C11.618 13.256 11.5387 13.284 11.436 13.284H10.302ZM10.218 16C10.1153 16 10.0313 15.9673 9.966 15.902C9.91 15.8367 9.882 15.7573 9.882 15.664V14.362C9.882 14.2593 9.91 14.1753 9.966 14.11C10.0313 14.0447 10.1153 14.012 10.218 14.012H11.52C11.6227 14.012 11.7067 14.0447 11.772 14.11C11.8373 14.1753 11.87 14.2593 11.87 14.362V15.664C11.87 15.7573 11.8373 15.8367 11.772 15.902C11.7067 15.9673 11.6227 16 11.52 16H10.218Z" fill="white"/>
<defs>
<linearGradient id="paint0_linear_24_55" x1="0" y1="11.5" x2="22" y2="11.5" gradientUnits="userSpaceOnUse">
<stop stop-color="#F8BC5A"/>
<stop offset="1" stop-color="#FFDFAA"/>
</linearGradient>
</defs>
</svg>
